<svg width="128" height="180" viewBox="0 0 128 180" fill="none" xmlns="http://www.w3.org/2000/svg">
<path d="M0.197482 94.5021C-1.80252 108.002 11.6975 130.502 26.6975 154.002C46 178.5 61 189 85.5 169.5C110 150 124.697 114.002 116.697 89.0021C108.697 64.0021 139.5 44.9998 122.5 17.9998C105.5 -9.00023 88 15.5 60.5 0.00146484C47.0002 0.00146484 -2 34.5021 7 54.5021C16 74.5021 2.19748 81.0021 0.197482 94.5021Z" fill="black"/>
<path d="M32.8016 94.2326C39.2029 88.5041 45.0038 79.1302 46.6042 72.5C54.2854 91.5948 68.2759 93.1719 74.4106 95.0286C77.878 90.5199 83.5324 81.1842 81.612 67.1812C79.6917 53.1781 54.1395 51.7991 41.6037 53.6556C38.4031 54.7163 30.7226 58.1111 25.6013 63.2034C13.5987 75.1381 23.2006 87.8679 32.8016 94.2326Z" fill="white"/>
<path d="M33.6027 135.605C31.6823 124.148 32.2685 105.902 32.8016 98.211C35.3615 96.938 40.8035 89.1938 43.2045 85.4809C44.0047 91.8459 45.2849 108.713 44.0047 125.262C43.0112 138.105 43.7198 151.021 44.7103 160.377C44.8325 161.531 43.0719 162.039 42.5838 160.986C39.1613 153.603 35.0496 144.238 33.6027 135.605Z" fill="white"/>
<path d="M61.5 130.5C60.3351 118.131 60.5 98.6749 61.5 93C64.3 96.2 72.3333 97.8073 76 98.211C76.3333 102.641 74.5715 112.462 72.5 125.262C70.1884 139.546 74.0956 156.307 76.466 167.012C76.7211 168.163 75.0726 168.689 74.5241 167.645C69.8817 158.805 63.0233 146.676 61.5 130.5Z" fill="white"/>
<path d="M37 41.5C32.0375 42.7186 31.2016 46.7452 34.0228 50.1636C37.6338 50.1636 40.4174 54.7213 41.3578 57.0002C43.2385 54.7213 38.6424 51.6857 47.0001 46.1755C47.0001 42.1873 41.835 40.3127 37 41.5Z" fill="white"/>
<path d="M78.5 30.5001C62.5 37 63.6667 31.5 64 30.5001C64.5 29.0001 63.4 25.2 69 24C73.5 23.9998 78.5 27.0002 78.5 30.5001Z" fill="white"/>
<path d="M25.7197 36.3061C38.045 37.6768 35.3323 33.0087 35.3323 33.0087C34.6043 31.9663 34.3289 28.7876 30.2992 29.1363C27.3159 30.1595 24.7944 33.6088 25.7197 36.3061Z" fill="white"/>
<path d="M78.8568 67.5C81.5 72 91.2861 76.3315 91.2861 76.3315L78.8568 77.2579C78.8568 77.2579 75.287 70.0345 78.8568 67.5Z" fill="white"/>
<path d="M24.7473 70.5607C23.3168 75.5296 16 81.9106 16 81.9106L26.3463 80.0704C26.3463 80.0704 28.0906 72.2429 24.7473 70.5607Z" fill="white"/>
<path d="M27.6567 82.3972C27.7042 86.1817 23.9248 92.1997 23.9248 92.1997L30.7868 88.7239C30.7868 88.7239 30.3552 82.8697 27.6567 82.3972Z" fill="white"/>
<path d="M90.3516 76.4517C85.1715 76.9271 77.627 75.8354 77.627 75.8354L87 79.5C87 79.5 91.9598 80.5692 90.3516 76.4517Z" fill="black"/>
<path d="M77 78.5C79.3224 82.8424 84.2031 86.9736 84.2031 86.9736L74.5827 85.6708C74.5827 85.6708 73.8703 79.8543 77 78.5Z" fill="white"/>
<path d="M86.119 86.8612C81.8934 86.4847 76 84.5049 76 84.5049L84 90C84 90 86.8068 90.4001 86.119 86.8612Z" fill="black"/>
</svg>
